HIERARCHY
ROOT joint_Root
{
	OFFSET 0.0 0.0 0.0
	CHANNELS 6 Xposition Yposition Zposition Zrotation Xrotation Yrotation 
	JOINT Hips
	{
		OFFSET -0.726466 93.3139 -2.00062
		CHANNELS 6 Xposition Yposition Zposition Zrotation Xrotation Yrotation 
		JOINT Spine
		{
			OFFSET 15.7357 0.0 0.0
			CHANNELS 6 Xposition Yposition Zposition Zrotation Xrotation Yrotation 
			JOINT Chest
			{
				OFFSET 8.98455 -0.406207 0.0
				CHANNELS 6 Xposition Yposition Zposition Zrotation Xrotation Yrotation 
				JOINT Neck
				{
					OFFSET 16.3773 0.0 0.0
					CHANNELS 6 Xposition Yposition Zposition Zrotation Xrotation Yrotation 
					JOINT Head
					{
						OFFSET 6.45672 0.0 0.0
						CHANNELS 6 Xposition Yposition Zposition Zrotation Xrotation Yrotation 
						End Site
						{
							OFFSET 0.0 0.0 0.0
						}
					}
				}
				JOINT Shoulder_L
				{
					OFFSET 12.9942 -0.242716 4.98039
					CHANNELS 6 Xposition Yposition Zposition Zrotation Xrotation Yrotation 
					JOINT UpperArm_L
					{
						OFFSET 5.34809 0.0 0.0
						CHANNELS 6 Xposition Yposition Zposition Zrotation Xrotation Yrotation 
						JOINT LowerArm_L
						{
							OFFSET 24.3286 1.87007e-05 0.0
							CHANNELS 6 Xposition Yposition Zposition Zrotation Xrotation Yrotation 
							JOINT Hand_L
							{
								OFFSET 22.2916 0.0 0.0
								CHANNELS 6 Xposition Yposition Zposition Zrotation Xrotation Yrotation 
								End Site
								{
									OFFSET 0.0 0.0 0.0
								}
							}
						}
					}
				}
				JOINT Shoulder_R
				{
					OFFSET 12.9945 -0.242716 -4.98039
					CHANNELS 6 Xposition Yposition Zposition Zrotation Xrotation Yrotation 
					JOINT UpperArm_R
					{
						OFFSET -5.34813 0.0 0.0
						CHANNELS 6 Xposition Yposition Zposition Zrotation Xrotation Yrotation 
						JOINT LowerArm_R
						{
							OFFSET -24.3289 0.000322201 0.0
							CHANNELS 6 Xposition Yposition Zposition Zrotation Xrotation Yrotation 
							JOINT Hand_R
							{
								OFFSET -22.2915 -0.000108084 0.0
								CHANNELS 6 Xposition Yposition Zposition Zrotation Xrotation Yrotation 
								End Site
								{
									OFFSET 0.0 0.0 0.0
								}
							}
						}
					}
				}
			}
		}
		JOINT UpperLeg_L
		{
			OFFSET -2.19248 -6.46944 0.0
			CHANNELS 6 Xposition Yposition Zposition Zrotation Xrotation Yrotation 
			JOINT LowerLeg_L
			{
				OFFSET 39.0811 0.0 -1.23785e-05
				CHANNELS 6 Xposition Yposition Zposition Zrotation Xrotation Yrotation 
				JOINT Foot_L
				{
					OFFSET 40.9854 0.0 -1.26872e-05
					CHANNELS 6 Xposition Yposition Zposition Zrotation Xrotation Yrotation 
					JOINT Toes_L
					{
						OFFSET 11.7543 0.0 0.0
						CHANNELS 6 Xposition Yposition Zposition Zrotation Xrotation Yrotation 
						End Site
						{
							OFFSET 0.0 0.0 0.0
						}
					}
				}
			}
		}
		JOINT UpperLeg_R
		{
			OFFSET -2.19251 6.46944 0.0
			CHANNELS 6 Xposition Yposition Zposition Zrotation Xrotation Yrotation 
			JOINT LowerLeg_R
			{
				OFFSET -39.0811 -0.00228153 -0.0401928
				CHANNELS 6 Xposition Yposition Zposition Zrotation Xrotation Yrotation 
				JOINT Foot_R
				{
					OFFSET -40.9854 0.0 0.0
					CHANNELS 6 Xposition Yposition Zposition Zrotation Xrotation Yrotation 
					JOINT Toes_R
					{
						OFFSET -11.7543 0.0 0.0
						CHANNELS 6 Xposition Yposition Zposition Zrotation Xrotation Yrotation 
						End Site
						{
							OFFSET 0.0 0.0 0.0
						}
					}
				}
			}
		}
	}
}
MOTION
Frames:	4
Frame Time:	0.0333333
0.000000 0.000000 0.000000 0.000000 0.000000 -0.000000 -183.459000 89.796500 199.279000 80.745900 79.277500 9.954340 15.735700 0.000005 -0.000001 103.070000 80.737100 -102.548000 8.984550 -0.406207 -0.000000 10.280900 4.173170 0.668984 16.377300 -0.000001 -0.000001 2.231390 -1.094300 0.570756 6.456720 -0.000001 -0.000000 -2.023460 -3.127280 -4.264680 12.994200 -0.242716 4.980390 -87.935700 -4.712530 -66.311500 5.348090 -0.000007 -0.000001 -73.561200 23.851900 8.019880 24.328600 0.000019 0.000005 5.784890 7.292600 -38.593600 22.291600 -0.000001 0.000005 5.557520 5.536310 -8.075800 12.994500 -0.242716 -4.980390 89.759300 0.703278 -71.110200 -5.348130 -0.000001 -0.000004 -35.836000 27.892700 -48.499600 -24.328900 0.000322 -0.000009 3.907680 3.867190 -45.373200 -22.291500 -0.000108 -0.000004 7.238890 5.540690 -8.274160 -2.192480 -6.469440 -0.000000 -175.169000 -16.601200 -25.564900 39.081100 -0.000007 -0.000012 0.006888 -0.023352 16.434200 40.985400 -0.000006 -0.000013 1.458050 -2.944090 -59.447100 11.754300 -0.000000 0.000003 -0.004669 -0.058233 -18.946000 -2.192510 6.469440 -0.000001 177.926000 15.045900 -179.741000 -39.081100 -0.002282 -0.040193 0.038481 -0.068580 27.152000 -40.985400 0.000008 0.000006 2.286240 0.771145 -75.972900 -11.754300 -0.000006 -0.000006 -0.005772 -0.068754 -19.371100
0.000000 0.000000 0.000000 0.000000 0.000000 -0.000000 -179.957000 88.845800 199.194000 77.421900 77.567200 13.515800 15.735700 0.000005 -0.000001 105.787000 80.451600 -105.162000 8.984550 -0.406207 -0.000000 10.613900 5.174610 0.768448 16.377300 -0.000001 -0.000001 2.035980 -0.809309 0.560100 6.456720 -0.000001 -0.000000 -1.971570 -3.071690 -4.346170 12.994200 -0.242716 4.980390 -87.841500 -4.872790 -66.072400 5.348090 -0.000007 -0.000001 -74.027200 22.605000 9.218700 24.328600 0.000019 0.000005 5.744580 7.418510 -37.923200 22.291600 -0.000001 0.000005 5.707440 5.533870 -7.966690 12.994500 -0.242716 -4.980390 89.913100 0.258369 -71.415600 -5.348130 -0.000001 -0.000004 -34.752900 26.169600 -51.430800 -24.328900 0.000322 -0.000009 3.973640 3.893580 -45.659400 -22.291500 -0.000108 -0.000004 7.289340 5.540050 -8.244950 -2.192480 -6.469440 -0.000000 -174.187000 -17.716600 -24.549600 39.081100 -0.000007 -0.000012 0.000301 -0.002383 7.209360 40.985400 -0.000006 -0.000013 0.585378 -2.991700 -60.160900 11.754300 -0.000000 0.000003 -0.005018 -0.061651 -19.085200 -2.192510 6.469440 -0.000001 177.344000 14.477800 -176.883000 -39.081100 -0.002282 -0.040193 0.023026 -0.038301 27.241500 -40.985400 0.000008 0.000006 1.574130 2.064530 -78.336200 -11.754300 -0.000006 -0.000006 -0.005815 -0.069149 -19.387200
0.000000 0.000000 0.000000 0.000000 0.000000 -0.000000 -176.148000 87.788800 198.927000 77.004800 76.178600 14.113700 15.735700 0.000005 -0.000001 107.613000 80.213000 -107.117000 8.984550 -0.406207 -0.000000 10.906900 5.892880 0.429872 16.377300 -0.000001 -0.000001 1.999700 -0.623819 0.625526 6.456720 -0.000001 -0.000000 -1.967080 -2.912110 -4.286580 12.994200 -0.242716 4.980390 -87.820100 -4.911420 -66.029900 5.348090 -0.000007 -0.000001 -74.069100 22.159200 9.920860 24.328600 0.000019 0.000005 5.589540 7.399500 -37.231300 22.291600 -0.000001 0.000005 5.635490 5.532630 -7.910620 12.994500 -0.242716 -4.980390 89.981700 0.055272 -71.666400 -5.348130 -0.000001 -0.000004 -34.575000 24.732100 -53.345300 -24.328900 0.000322 -0.000009 3.901850 3.812590 -45.736900 -22.291500 -0.000108 -0.000004 7.377750 5.538480 -8.173610 -2.192480 -6.469440 -0.000000 -174.766000 -20.079900 -26.558600 39.081100 -0.000007 -0.000012 -0.000055 0.000501 6.150760 40.985400 -0.000006 -0.000013 -1.432500 -3.029870 -60.894000 11.754300 -0.000000 0.000003 -0.005073 -0.062177 -19.106700 -2.192510 6.469440 -0.000001 175.799000 14.207900 -173.970000 -39.081100 -0.002282 -0.040193 0.000190 0.006031 27.337500 -40.985400 0.000008 0.000006 0.596409 3.578130 -80.370100 -11.754300 -0.000006 -0.000006 -0.005779 -0.068818 -19.373700
0.000000 0.000000 0.000000 0.000000 0.000000 -0.000000 -171.975000 86.670500 198.440000 78.436500 74.959000 12.475400 15.735700 0.000005 -0.000001 109.367000 80.157300 -109.219000 8.984550 -0.406207 -0.000000 10.847900 6.484500 -0.321125 16.377300 -0.000001 -0.000001 2.140580 -0.471069 0.692620 6.456720 -0.000001 -0.000000 -1.980860 -2.820470 -4.074150 12.994200 -0.242716 4.980390 -87.916900 -4.660520 -65.883500 5.348090 -0.000007 -0.000001 -73.445900 22.441300 9.896610 24.328600 0.000019 0.000005 5.770180 7.874360 -36.412100 22.291600 -0.000001 0.000005 5.460910 5.535570 -8.042300 12.994500 -0.242716 -4.980390 89.974900 0.076229 -71.814400 -5.348130 -0.000001 -0.000004 -35.066700 23.889200 -54.079600 -24.328900 0.000322 -0.000009 3.885640 3.788670 -45.797300 -22.291500 -0.000108 -0.000004 7.602640 5.539450 -8.217770 -2.192480 -6.469440 -0.000000 -175.991000 -21.435000 -28.720800 39.081100 -0.000007 -0.000012 0.000940 -0.006366 8.405210 40.985400 -0.000006 -0.000013 -0.418891 -4.459570 -60.601200 11.754300 -0.000000 0.000003 -0.005537 -0.066582 -19.286200 -2.192510 6.469440 -0.000001 173.769000 13.322900 -171.898000 -39.081100 -0.002282 -0.040193 -0.013777 0.032016 28.083500 -40.985400 0.000008 0.000006 -0.464955 4.522690 -81.348400 -11.754300 -0.000006 -0.000006 -0.006985 -0.079536 -19.810900
